<svg xmlns="http://www.w3.org/2000/svg" width="240" height="128" viewBox="0 0 240 128">
<rect width="240" height="128" fill="#6f6a66"/>
<rect x="-60" y="0" width="56" height="28" fill="rgb(124,50,40)"/>
<rect x="-60" y="0" width="56" height="2" fill="#fff" opacity=".13"/>
<rect x="-60" y="25" width="56" height="3" fill="#000" opacity=".22"/>
<rect x="-50" y="14" width="3" height="1" fill="#000" opacity=".22"/>
<rect x="-40" y="12" width="1" height="2" fill="#fff" opacity=".16"/>
<rect x="-11" y="17" width="1" height="2" fill="#000" opacity=".13"/>
<rect x="-47" y="11" width="2" height="1" fill="#fff" opacity=".18"/>
<rect x="-35" y="5" width="1" height="1" fill="#fff" opacity=".19"/>
<rect x="-45" y="15" width="2" height="1" fill="#fff" opacity=".19"/>
<rect x="-28" y="9" width="3" height="1" fill="#fff" opacity=".16"/>
<rect x="0" y="0" width="56" height="28" fill="rgb(155,69,53)"/>
<rect x="0" y="0" width="56" height="2" fill="#fff" opacity=".13"/>
<rect x="0" y="25" width="56" height="3" fill="#000" opacity=".22"/>
<rect x="42" y="7" width="3" height="1" fill="#fff" opacity=".10"/>
<rect x="4" y="12" width="1" height="2" fill="#fff" opacity=".15"/>
<rect x="40" y="4" width="3" height="2" fill="#fff" opacity=".15"/>
<rect x="31" y="11" width="3" height="2" fill="#fff" opacity=".21"/>
<rect x="35" y="4" width="2" height="2" fill="#fff" opacity=".14"/>
<rect x="45" y="11" width="2" height="2" fill="#000" opacity=".21"/>
<rect x="25" y="22" width="3" height="1" fill="#fff" opacity=".12"/>
<rect x="60" y="0" width="56" height="28" fill="rgb(134,60,50)"/>
<rect x="60" y="0" width="56" height="2" fill="#fff" opacity=".13"/>
<rect x="60" y="25" width="56" height="3" fill="#000" opacity=".22"/>
<rect x="75" y="15" width="3" height="2" fill="#fff" opacity=".22"/>
<rect x="105" y="4" width="3" height="2" fill="#000" opacity=".12"/>
<rect x="85" y="22" width="2" height="1" fill="#000" opacity=".22"/>
<rect x="102" y="11" width="1" height="2" fill="#fff" opacity=".21"/>
<rect x="86" y="15" width="2" height="2" fill="#fff" opacity=".10"/>
<rect x="105" y="13" width="3" height="2" fill="#000" opacity=".12"/>
<rect x="72" y="13" width="1" height="2" fill="#fff" opacity=".17"/>
<rect x="120" y="0" width="56" height="28" fill="rgb(144,66,50)"/>
<rect x="120" y="0" width="56" height="2" fill="#fff" opacity=".13"/>
<rect x="120" y="25" width="56" height="3" fill="#000" opacity=".22"/>
<rect x="151" y="11" width="1" height="1" fill="#fff" opacity=".17"/>
<rect x="126" y="18" width="2" height="1" fill="#fff" opacity=".16"/>
<rect x="161" y="8" width="3" height="2" fill="#000" opacity=".11"/>
<rect x="142" y="12" width="3" height="1" fill="#fff" opacity=".15"/>
<rect x="134" y="18" width="3" height="1" fill="#fff" opacity=".20"/>
<rect x="124" y="7" width="1" height="1" fill="#fff" opacity=".19"/>
<rect x="137" y="15" width="2" height="1" fill="#000" opacity=".21"/>
<rect x="180" y="0" width="56" height="28" fill="rgb(124,50,40)"/>
<rect x="180" y="0" width="56" height="2" fill="#fff" opacity=".13"/>
<rect x="180" y="25" width="56" height="3" fill="#000" opacity=".22"/>
<rect x="190" y="14" width="3" height="1" fill="#000" opacity=".22"/>
<rect x="200" y="12" width="1" height="2" fill="#fff" opacity=".16"/>
<rect x="229" y="17" width="1" height="2" fill="#000" opacity=".13"/>
<rect x="193" y="11" width="2" height="1" fill="#fff" opacity=".18"/>
<rect x="205" y="5" width="1" height="1" fill="#fff" opacity=".19"/>
<rect x="195" y="15" width="2" height="1" fill="#fff" opacity=".19"/>
<rect x="212" y="9" width="3" height="1" fill="#fff" opacity=".16"/>
<rect x="240" y="0" width="56" height="28" fill="rgb(155,69,53)"/>
<rect x="240" y="0" width="56" height="2" fill="#fff" opacity=".13"/>
<rect x="240" y="25" width="56" height="3" fill="#000" opacity=".22"/>
<rect x="282" y="7" width="3" height="1" fill="#fff" opacity=".10"/>
<rect x="244" y="12" width="1" height="2" fill="#fff" opacity=".15"/>
<rect x="280" y="4" width="3" height="2" fill="#fff" opacity=".15"/>
<rect x="271" y="11" width="3" height="2" fill="#fff" opacity=".21"/>
<rect x="275" y="4" width="2" height="2" fill="#fff" opacity=".14"/>
<rect x="285" y="11" width="2" height="2" fill="#000" opacity=".21"/>
<rect x="265" y="22" width="3" height="1" fill="#fff" opacity=".12"/>
<rect x="-90" y="32" width="56" height="28" fill="rgb(156,70,54)"/>
<rect x="-90" y="32" width="56" height="2" fill="#fff" opacity=".13"/>
<rect x="-90" y="57" width="56" height="3" fill="#000" opacity=".22"/>
<rect x="-51" y="51" width="2" height="1" fill="#fff" opacity=".16"/>
<rect x="-83" y="54" width="2" height="1" fill="#fff" opacity=".18"/>
<rect x="-61" y="49" width="3" height="1" fill="#fff" opacity=".11"/>
<rect x="-70" y="47" width="1" height="2" fill="#fff" opacity=".14"/>
<rect x="-41" y="49" width="2" height="2" fill="#000" opacity=".16"/>
<rect x="-76" y="37" width="2" height="2" fill="#fff" opacity=".10"/>
<rect x="-46" y="52" width="3" height="2" fill="#fff" opacity=".11"/>
<rect x="-30" y="32" width="56" height="28" fill="rgb(169,81,59)"/>
<rect x="-30" y="32" width="56" height="2" fill="#fff" opacity=".13"/>
<rect x="-30" y="57" width="56" height="3" fill="#000" opacity=".22"/>
<rect x="7" y="46" width="3" height="1" fill="#fff" opacity=".22"/>
<rect x="-7" y="53" width="1" height="1" fill="#000" opacity=".20"/>
<rect x="-6" y="35" width="1" height="2" fill="#000" opacity=".20"/>
<rect x="7" y="35" width="3" height="1" fill="#fff" opacity=".17"/>
<rect x="-11" y="46" width="1" height="2" fill="#000" opacity=".18"/>
<rect x="-28" y="54" width="2" height="1" fill="#fff" opacity=".10"/>
<rect x="19" y="42" width="1" height="1" fill="#fff" opacity=".21"/>
<rect x="30" y="32" width="56" height="28" fill="rgb(131,51,39)"/>
<rect x="30" y="32" width="56" height="2" fill="#fff" opacity=".13"/>
<rect x="30" y="57" width="56" height="3" fill="#000" opacity=".22"/>
<rect x="46" y="52" width="3" height="2" fill="#000" opacity=".12"/>
<rect x="33" y="48" width="3" height="1" fill="#fff" opacity=".21"/>
<rect x="32" y="47" width="2" height="2" fill="#000" opacity=".10"/>
<rect x="60" y="48" width="3" height="1" fill="#000" opacity=".14"/>
<rect x="42" y="41" width="1" height="2" fill="#000" opacity=".21"/>
<rect x="66" y="42" width="2" height="1" fill="#fff" opacity=".19"/>
<rect x="34" y="35" width="2" height="2" fill="#fff" opacity=".19"/>
<rect x="90" y="32" width="56" height="28" fill="rgb(151,73,57)"/>
<rect x="90" y="32" width="56" height="2" fill="#fff" opacity=".13"/>
<rect x="90" y="57" width="56" height="3" fill="#000" opacity=".22"/>
<rect x="138" y="40" width="3" height="1" fill="#fff" opacity=".21"/>
<rect x="100" y="42" width="1" height="1" fill="#fff" opacity=".20"/>
<rect x="110" y="46" width="2" height="1" fill="#000" opacity=".10"/>
<rect x="132" y="40" width="1" height="2" fill="#fff" opacity=".12"/>
<rect x="104" y="53" width="1" height="2" fill="#000" opacity=".15"/>
<rect x="95" y="52" width="2" height="2" fill="#fff" opacity=".10"/>
<rect x="94" y="37" width="1" height="2" fill="#000" opacity=".22"/>
<rect x="150" y="32" width="56" height="28" fill="rgb(156,70,54)"/>
<rect x="150" y="32" width="56" height="2" fill="#fff" opacity=".13"/>
<rect x="150" y="57" width="56" height="3" fill="#000" opacity=".22"/>
<rect x="189" y="51" width="2" height="1" fill="#fff" opacity=".16"/>
<rect x="157" y="54" width="2" height="1" fill="#fff" opacity=".18"/>
<rect x="179" y="49" width="3" height="1" fill="#fff" opacity=".11"/>
<rect x="170" y="47" width="1" height="2" fill="#fff" opacity=".14"/>
<rect x="199" y="49" width="2" height="2" fill="#000" opacity=".16"/>
<rect x="164" y="37" width="2" height="2" fill="#fff" opacity=".10"/>
<rect x="194" y="52" width="3" height="2" fill="#fff" opacity=".11"/>
<rect x="210" y="32" width="56" height="28" fill="rgb(169,81,59)"/>
<rect x="210" y="32" width="56" height="2" fill="#fff" opacity=".13"/>
<rect x="210" y="57" width="56" height="3" fill="#000" opacity=".22"/>
<rect x="247" y="46" width="3" height="1" fill="#fff" opacity=".22"/>
<rect x="233" y="53" width="1" height="1" fill="#000" opacity=".20"/>
<rect x="234" y="35" width="1" height="2" fill="#000" opacity=".20"/>
<rect x="247" y="35" width="3" height="1" fill="#fff" opacity=".17"/>
<rect x="229" y="46" width="1" height="2" fill="#000" opacity=".18"/>
<rect x="212" y="54" width="2" height="1" fill="#fff" opacity=".10"/>
<rect x="259" y="42" width="1" height="1" fill="#fff" opacity=".21"/>
<rect x="-60" y="64" width="56" height="28" fill="rgb(180,92,70)"/>
<rect x="-60" y="64" width="56" height="2" fill="#fff" opacity=".13"/>
<rect x="-60" y="89" width="56" height="3" fill="#000" opacity=".22"/>
<rect x="-43" y="77" width="2" height="1" fill="#000" opacity=".17"/>
<rect x="-52" y="83" width="2" height="1" fill="#fff" opacity=".14"/>
<rect x="-35" y="69" width="2" height="1" fill="#000" opacity=".22"/>
<rect x="-24" y="71" width="1" height="1" fill="#fff" opacity=".15"/>
<rect x="-30" y="84" width="1" height="2" fill="#fff" opacity=".22"/>
<rect x="-18" y="83" width="2" height="2" fill="#fff" opacity=".18"/>
<rect x="-15" y="77" width="1" height="1" fill="#000" opacity=".12"/>
<rect x="0" y="64" width="56" height="28" fill="rgb(165,77,55)"/>
<rect x="0" y="64" width="56" height="2" fill="#fff" opacity=".13"/>
<rect x="0" y="89" width="56" height="3" fill="#000" opacity=".22"/>
<rect x="5" y="67" width="1" height="2" fill="#000" opacity=".11"/>
<rect x="18" y="76" width="1" height="1" fill="#fff" opacity=".10"/>
<rect x="28" y="80" width="3" height="2" fill="#000" opacity=".22"/>
<rect x="22" y="81" width="2" height="1" fill="#000" opacity=".20"/>
<rect x="24" y="69" width="1" height="2" fill="#000" opacity=".21"/>
<rect x="38" y="71" width="1" height="2" fill="#000" opacity=".11"/>
<rect x="6" y="82" width="3" height="1" fill="#fff" opacity=".15"/>
<rect x="60" y="64" width="56" height="28" fill="rgb(148,68,56)"/>
<rect x="60" y="64" width="56" height="2" fill="#fff" opacity=".13"/>
<rect x="60" y="89" width="56" height="3" fill="#000" opacity=".22"/>
<rect x="108" y="75" width="3" height="2" fill="#000" opacity=".22"/>
<rect x="92" y="76" width="3" height="2" fill="#fff" opacity=".18"/>
<rect x="78" y="80" width="3" height="1" fill="#fff" opacity=".14"/>
<rect x="101" y="81" width="2" height="2" fill="#000" opacity=".13"/>
<rect x="79" y="72" width="1" height="1" fill="#000" opacity=".20"/>
<rect x="66" y="71" width="2" height="2" fill="#000" opacity=".16"/>
<rect x="101" y="78" width="2" height="1" fill="#000" opacity=".12"/>
<rect x="120" y="64" width="56" height="28" fill="rgb(151,65,49)"/>
<rect x="120" y="64" width="56" height="2" fill="#fff" opacity=".13"/>
<rect x="120" y="89" width="56" height="3" fill="#000" opacity=".22"/>
<rect x="132" y="78" width="2" height="1" fill="#fff" opacity=".20"/>
<rect x="125" y="75" width="3" height="1" fill="#000" opacity=".12"/>
<rect x="160" y="73" width="3" height="2" fill="#fff" opacity=".22"/>
<rect x="153" y="77" width="1" height="1" fill="#000" opacity=".21"/>
<rect x="154" y="85" width="2" height="1" fill="#fff" opacity=".13"/>
<rect x="131" y="67" width="2" height="2" fill="#000" opacity=".20"/>
<rect x="141" y="84" width="2" height="1" fill="#000" opacity=".12"/>
<rect x="180" y="64" width="56" height="28" fill="rgb(180,92,70)"/>
<rect x="180" y="64" width="56" height="2" fill="#fff" opacity=".13"/>
<rect x="180" y="89" width="56" height="3" fill="#000" opacity=".22"/>
<rect x="197" y="77" width="2" height="1" fill="#000" opacity=".17"/>
<rect x="188" y="83" width="2" height="1" fill="#fff" opacity=".14"/>
<rect x="205" y="69" width="2" height="1" fill="#000" opacity=".22"/>
<rect x="216" y="71" width="1" height="1" fill="#fff" opacity=".15"/>
<rect x="210" y="84" width="1" height="2" fill="#fff" opacity=".22"/>
<rect x="222" y="83" width="2" height="2" fill="#fff" opacity=".18"/>
<rect x="225" y="77" width="1" height="1" fill="#000" opacity=".12"/>
<rect x="240" y="64" width="56" height="28" fill="rgb(165,77,55)"/>
<rect x="240" y="64" width="56" height="2" fill="#fff" opacity=".13"/>
<rect x="240" y="89" width="56" height="3" fill="#000" opacity=".22"/>
<rect x="245" y="67" width="1" height="2" fill="#000" opacity=".11"/>
<rect x="258" y="76" width="1" height="1" fill="#fff" opacity=".10"/>
<rect x="268" y="80" width="3" height="2" fill="#000" opacity=".22"/>
<rect x="262" y="81" width="2" height="1" fill="#000" opacity=".20"/>
<rect x="264" y="69" width="1" height="2" fill="#000" opacity=".21"/>
<rect x="278" y="71" width="1" height="2" fill="#000" opacity=".11"/>
<rect x="246" y="82" width="3" height="1" fill="#fff" opacity=".15"/>
<rect x="-90" y="96" width="56" height="28" fill="rgb(148,70,54)"/>
<rect x="-90" y="96" width="56" height="2" fill="#fff" opacity=".13"/>
<rect x="-90" y="121" width="56" height="3" fill="#000" opacity=".22"/>
<rect x="-62" y="110" width="2" height="2" fill="#000" opacity=".20"/>
<rect x="-62" y="110" width="3" height="2" fill="#fff" opacity=".16"/>
<rect x="-42" y="106" width="2" height="2" fill="#fff" opacity=".19"/>
<rect x="-79" y="118" width="3" height="2" fill="#fff" opacity=".10"/>
<rect x="-49" y="117" width="3" height="1" fill="#fff" opacity=".16"/>
<rect x="-67" y="105" width="2" height="1" fill="#fff" opacity=".21"/>
<rect x="-70" y="104" width="2" height="1" fill="#000" opacity=".18"/>
<rect x="-30" y="96" width="56" height="28" fill="rgb(154,68,52)"/>
<rect x="-30" y="96" width="56" height="2" fill="#fff" opacity=".13"/>
<rect x="-30" y="121" width="56" height="3" fill="#000" opacity=".22"/>
<rect x="0" y="110" width="1" height="2" fill="#fff" opacity=".19"/>
<rect x="-14" y="113" width="3" height="1" fill="#000" opacity=".16"/>
<rect x="-1" y="118" width="3" height="1" fill="#fff" opacity=".22"/>
<rect x="-15" y="118" width="1" height="1" fill="#fff" opacity=".19"/>
<rect x="-8" y="102" width="1" height="1" fill="#fff" opacity=".22"/>
<rect x="9" y="110" width="2" height="2" fill="#000" opacity=".22"/>
<rect x="-23" y="99" width="1" height="1" fill="#fff" opacity=".11"/>
<rect x="30" y="96" width="56" height="28" fill="rgb(153,75,59)"/>
<rect x="30" y="96" width="56" height="2" fill="#fff" opacity=".13"/>
<rect x="30" y="121" width="56" height="3" fill="#000" opacity=".22"/>
<rect x="81" y="112" width="3" height="1" fill="#000" opacity=".13"/>
<rect x="53" y="103" width="3" height="1" fill="#000" opacity=".17"/>
<rect x="80" y="102" width="1" height="2" fill="#000" opacity=".11"/>
<rect x="57" y="106" width="1" height="2" fill="#fff" opacity=".14"/>
<rect x="71" y="100" width="1" height="2" fill="#000" opacity=".22"/>
<rect x="34" y="99" width="3" height="1" fill="#fff" opacity=".14"/>
<rect x="39" y="117" width="3" height="1" fill="#fff" opacity=".18"/>
<rect x="90" y="96" width="56" height="28" fill="rgb(165,75,57)"/>
<rect x="90" y="96" width="56" height="2" fill="#fff" opacity=".13"/>
<rect x="90" y="121" width="56" height="3" fill="#000" opacity=".22"/>
<rect x="97" y="102" width="3" height="1" fill="#fff" opacity=".19"/>
<rect x="106" y="114" width="3" height="2" fill="#000" opacity=".11"/>
<rect x="98" y="104" width="3" height="2" fill="#000" opacity=".12"/>
<rect x="115" y="109" width="1" height="2" fill="#fff" opacity=".11"/>
<rect x="92" y="101" width="2" height="2" fill="#fff" opacity=".11"/>
<rect x="121" y="107" width="2" height="1" fill="#fff" opacity=".12"/>
<rect x="127" y="102" width="2" height="1" fill="#000" opacity=".12"/>
<rect x="150" y="96" width="56" height="28" fill="rgb(148,70,54)"/>
<rect x="150" y="96" width="56" height="2" fill="#fff" opacity=".13"/>
<rect x="150" y="121" width="56" height="3" fill="#000" opacity=".22"/>
<rect x="178" y="110" width="2" height="2" fill="#000" opacity=".20"/>
<rect x="178" y="110" width="3" height="2" fill="#fff" opacity=".16"/>
<rect x="198" y="106" width="2" height="2" fill="#fff" opacity=".19"/>
<rect x="161" y="118" width="3" height="2" fill="#fff" opacity=".10"/>
<rect x="191" y="117" width="3" height="1" fill="#fff" opacity=".16"/>
<rect x="173" y="105" width="2" height="1" fill="#fff" opacity=".21"/>
<rect x="170" y="104" width="2" height="1" fill="#000" opacity=".18"/>
<rect x="210" y="96" width="56" height="28" fill="rgb(154,68,52)"/>
<rect x="210" y="96" width="56" height="2" fill="#fff" opacity=".13"/>
<rect x="210" y="121" width="56" height="3" fill="#000" opacity=".22"/>
<rect x="240" y="110" width="1" height="2" fill="#fff" opacity=".19"/>
<rect x="226" y="113" width="3" height="1" fill="#000" opacity=".16"/>
<rect x="239" y="118" width="3" height="1" fill="#fff" opacity=".22"/>
<rect x="225" y="118" width="1" height="1" fill="#fff" opacity=".19"/>
<rect x="232" y="102" width="1" height="1" fill="#fff" opacity=".22"/>
<rect x="249" y="110" width="2" height="2" fill="#000" opacity=".22"/>
<rect x="217" y="99" width="1" height="1" fill="#fff" opacity=".11"/>
</svg>